<svg id="Group_3175" data-name="Group 3175" xmlns="http://www.w3.org/2000/svg" viewBox="0 0 118.01 33.031">
  <defs>
    <style>
      .cls-1 {
        fill: #fff;
      }
    </style>
  </defs>
  <path id="Path_450" data-name="Path 450" class="cls-1" d="M311.447,3.7a3.023,3.023,0,1,1,6.044,0,3.023,3.023,0,1,1-6.044,0Zm3.022,3.733A3.716,3.716,0,1,0,310.7,3.7,3.718,3.718,0,0,0,314.469,7.431Zm-.782-3.413h.747l1.138,1.849h.711l-1.209-1.884a1.1,1.1,0,0,0,1.1-1.173c0-.853-.5-1.209-1.529-1.209h-1.636V5.867h.64V4.018Zm0-.569V2.133h.889c.462,0,.924.107.924.64,0,.676-.5.711-1.031.711h-.782Z" transform="translate(-200.228)"/>
  <g id="Group_40" data-name="Group 40" transform="translate(0 0.178)">
    <g id="Group_39" data-name="Group 39">
      <g id="Group_38" data-name="Group 38">
        <path id="Path_451" data-name="Path 451" class="cls-1" d="M23.5,15.86H45.227V32.536H40.889l-1.6-4.053c-3.378,2.951-9.564,4.871-16.32,4.871-8.462,0-12.622-1.956-15.147-3.52C.213,25.318,0,19.985,0,16.678,0,9.069,7.289.5,23.431.5c9.244,0,19.52,3.307,20.942,10.311H37.9c-2.133-5.44-9.351-6.578-14.827-6.578-8.889,0-16.213,4.48-16.213,12.658,0,6.329,3.307,12.871,16.462,12.871a22.916,22.916,0,0,0,10.133-1.991C37.8,25.6,38.9,22.829,38.9,19.487H23.5Z" transform="translate(0 -0.5)"/>
        <path id="Path_452" data-name="Path 452" class="cls-1" d="M162.884,30.285h25.1v3.733H156.2V2.8h6.684Z" transform="translate(-100.662 -1.982)"/>
        <path id="Path_453" data-name="Path 453" class="cls-1" d="M275.585,34.018H268.9V2.8h6.684Z" transform="translate(-173.291 -1.982)"/>
      </g>
    </g>
  </g>
</svg>
